<?xml version="1.0" encoding="utf-8"?>
<!DOCTYPE svg PUBLIC "-//W3C//DTD SVG 20010904//EN" "http://www.w3.org/TR/2001/REC-SVG-20010904/DTD/svg10.dtd">
<svg xmlns="http://www.w3.org/2000/svg" xml:space="preserve" xmlns:xlink="http://www.w3.org/1999/xlink" width="360" height="360" viewBox="0 0 360 360">
<desc></desc>
<rect width="360" height="360" fill="#ffffff" cx="0" cy="0" />
<defs>
<rect id="p" width="8" height="8" />
<circle id="circle" r="4" stroke-width="0" fill="000000" />
<rect id="hor" width="8" height="2" />
<rect id="ver" width="2" height="8" />
<polygon id="3d1" points="0,0 8,0 0,8" stroke-width="0" fill="000000" />
<polygon id="3d2" points="0,8 8,0 8,8" stroke-width="0" fill="#808080" />
</defs>
<g fill="#000000">
<use x="16" y="16" xlink:href="#p" />
<use x="24" y="16" xlink:href="#p" />
<use x="32" y="16" xlink:href="#p" />
<use x="40" y="16" xlink:href="#p" />
<use x="48" y="16" xlink:href="#p" />
<use x="56" y="16" xlink:href="#p" />
<use x="64" y="16" xlink:href="#p" />
<use x="80" y="16" xlink:href="#p" />
<use x="88" y="16" xlink:href="#p" />
<use x="96" y="16" xlink:href="#p" />
<use x="120" y="16" xlink:href="#p" />
<use x="128" y="16" xlink:href="#p" />
<use x="160" y="16" xlink:href="#p" />
<use x="208" y="16" xlink:href="#p" />
<use x="224" y="16" xlink:href="#p" />
<use x="288" y="16" xlink:href="#p" />
<use x="296" y="16" xlink:href="#p" />
<use x="304" y="16" xlink:href="#p" />
<use x="312" y="16" xlink:href="#p" />
<use x="320" y="16" xlink:href="#p" />
<use x="328" y="16" xlink:href="#p" />
<use x="336" y="16" xlink:href="#p" />
<use x="16" y="24" xlink:href="#p" />
<use x="64" y="24" xlink:href="#p" />
<use x="112" y="24" xlink:href="#p" />
<use x="128" y="24" xlink:href="#p" />
<use x="152" y="24" xlink:href="#p" />
<use x="192" y="24" xlink:href="#p" />
<use x="232" y="24" xlink:href="#p" />
<use x="240" y="24" xlink:href="#p" />
<use x="248" y="24" xlink:href="#p" />
<use x="256" y="24" xlink:href="#p" />
<use x="288" y="24" xlink:href="#p" />
<use x="336" y="24" xlink:href="#p" />
<use x="16" y="32" xlink:href="#p" />
<use x="32" y="32" xlink:href="#p" />
<use x="40" y="32" xlink:href="#p" />
<use x="48" y="32" xlink:href="#p" />
<use x="64" y="32" xlink:href="#p" />
<use x="88" y="32" xlink:href="#p" />
<use x="128" y="32" xlink:href="#p" />
<use x="152" y="32" xlink:href="#p" />
<use x="168" y="32" xlink:href="#p" />
<use x="208" y="32" xlink:href="#p" />
<use x="264" y="32" xlink:href="#p" />
<use x="288" y="32" xlink:href="#p" />
<use x="304" y="32" xlink:href="#p" />
<use x="312" y="32" xlink:href="#p" />
<use x="320" y="32" xlink:href="#p" />
<use x="336" y="32" xlink:href="#p" />
<use x="16" y="40" xlink:href="#p" />
<use x="32" y="40" xlink:href="#p" />
<use x="40" y="40" xlink:href="#p" />
<use x="48" y="40" xlink:href="#p" />
<use x="64" y="40" xlink:href="#p" />
<use x="96" y="40" xlink:href="#p" />
<use x="112" y="40" xlink:href="#p" />
<use x="120" y="40" xlink:href="#p" />
<use x="136" y="40" xlink:href="#p" />
<use x="144" y="40" xlink:href="#p" />
<use x="152" y="40" xlink:href="#p" />
<use x="160" y="40" xlink:href="#p" />
<use x="176" y="40" xlink:href="#p" />
<use x="208" y="40" xlink:href="#p" />
<use x="232" y="40" xlink:href="#p" />
<use x="248" y="40" xlink:href="#p" />
<use x="272" y="40" xlink:href="#p" />
<use x="288" y="40" xlink:href="#p" />
<use x="304" y="40" xlink:href="#p" />
<use x="312" y="40" xlink:href="#p" />
<use x="320" y="40" xlink:href="#p" />
<use x="336" y="40" xlink:href="#p" />
<use x="16" y="48" xlink:href="#p" />
<use x="32" y="48" xlink:href="#p" />
<use x="40" y="48" xlink:href="#p" />
<use x="48" y="48" xlink:href="#p" />
<use x="64" y="48" xlink:href="#p" />
<use x="80" y="48" xlink:href="#p" />
<use x="88" y="48" xlink:href="#p" />
<use x="104" y="48" xlink:href="#p" />
<use x="112" y="48" xlink:href="#p" />
<use x="120" y="48" xlink:href="#p" />
<use x="128" y="48" xlink:href="#p" />
<use x="136" y="48" xlink:href="#p" />
<use x="152" y="48" xlink:href="#p" />
<use x="184" y="48" xlink:href="#p" />
<use x="192" y="48" xlink:href="#p" />
<use x="200" y="48" xlink:href="#p" />
<use x="208" y="48" xlink:href="#p" />
<use x="216" y="48" xlink:href="#p" />
<use x="224" y="48" xlink:href="#p" />
<use x="240" y="48" xlink:href="#p" />
<use x="248" y="48" xlink:href="#p" />
<use x="256" y="48" xlink:href="#p" />
<use x="264" y="48" xlink:href="#p" />
<use x="288" y="48" xlink:href="#p" />
<use x="304" y="48" xlink:href="#p" />
<use x="312" y="48" xlink:href="#p" />
<use x="320" y="48" xlink:href="#p" />
<use x="336" y="48" xlink:href="#p" />
<use x="16" y="56" xlink:href="#p" />
<use x="64" y="56" xlink:href="#p" />
<use x="80" y="56" xlink:href="#p" />
<use x="88" y="56" xlink:href="#p" />
<use x="128" y="56" xlink:href="#p" />
<use x="136" y="56" xlink:href="#p" />
<use x="144" y="56" xlink:href="#p" />
<use x="152" y="56" xlink:href="#p" />
<use x="160" y="56" xlink:href="#p" />
<use x="184" y="56" xlink:href="#p" />
<use x="200" y="56" xlink:href="#p" />
<use x="208" y="56" xlink:href="#p" />
<use x="232" y="56" xlink:href="#p" />
<use x="240" y="56" xlink:href="#p" />
<use x="272" y="56" xlink:href="#p" />
<use x="288" y="56" xlink:href="#p" />
<use x="336" y="56" xlink:href="#p" />
<use x="16" y="64" xlink:href="#p" />
<use x="24" y="64" xlink:href="#p" />
<use x="32" y="64" xlink:href="#p" />
<use x="40" y="64" xlink:href="#p" />
<use x="48" y="64" xlink:href="#p" />
<use x="56" y="64" xlink:href="#p" />
<use x="64" y="64" xlink:href="#p" />
<use x="80" y="64" xlink:href="#p" />
<use x="96" y="64" xlink:href="#p" />
<use x="112" y="64" xlink:href="#p" />
<use x="128" y="64" xlink:href="#p" />
<use x="144" y="64" xlink:href="#p" />
<use x="160" y="64" xlink:href="#p" />
<use x="176" y="64" xlink:href="#p" />
<use x="192" y="64" xlink:href="#p" />
<use x="208" y="64" xlink:href="#p" />
<use x="224" y="64" xlink:href="#p" />
<use x="240" y="64" xlink:href="#p" />
<use x="256" y="64" xlink:href="#p" />
<use x="272" y="64" xlink:href="#p" />
<use x="288" y="64" xlink:href="#p" />
<use x="296" y="64" xlink:href="#p" />
<use x="304" y="64" xlink:href="#p" />
<use x="312" y="64" xlink:href="#p" />
<use x="320" y="64" xlink:href="#p" />
<use x="328" y="64" xlink:href="#p" />
<use x="336" y="64" xlink:href="#p" />
<use x="88" y="72" xlink:href="#p" />
<use x="104" y="72" xlink:href="#p" />
<use x="128" y="72" xlink:href="#p" />
<use x="136" y="72" xlink:href="#p" />
<use x="168" y="72" xlink:href="#p" />
<use x="176" y="72" xlink:href="#p" />
<use x="184" y="72" xlink:href="#p" />
<use x="232" y="72" xlink:href="#p" />
<use x="256" y="72" xlink:href="#p" />
<use x="272" y="72" xlink:href="#p" />
<use x="24" y="80" xlink:href="#p" />
<use x="32" y="80" xlink:href="#p" />
<use x="40" y="80" xlink:href="#p" />
<use x="48" y="80" xlink:href="#p" />
<use x="56" y="80" xlink:href="#p" />
<use x="64" y="80" xlink:href="#p" />
<use x="72" y="80" xlink:href="#p" />
<use x="112" y="80" xlink:href="#p" />
<use x="128" y="80" xlink:href="#p" />
<use x="136" y="80" xlink:href="#p" />
<use x="152" y="80" xlink:href="#p" />
<use x="192" y="80" xlink:href="#p" />
<use x="200" y="80" xlink:href="#p" />
<use x="216" y="80" xlink:href="#p" />
<use x="224" y="80" xlink:href="#p" />
<use x="232" y="80" xlink:href="#p" />
<use x="248" y="80" xlink:href="#p" />
<use x="296" y="80" xlink:href="#p" />
<use x="304" y="80" xlink:href="#p" />
<use x="336" y="80" xlink:href="#p" />
<use x="32" y="88" xlink:href="#p" />
<use x="40" y="88" xlink:href="#p" />
<use x="56" y="88" xlink:href="#p" />
<use x="72" y="88" xlink:href="#p" />
<use x="80" y="88" xlink:href="#p" />
<use x="88" y="88" xlink:href="#p" />
<use x="104" y="88" xlink:href="#p" />
<use x="112" y="88" xlink:href="#p" />
<use x="120" y="88" xlink:href="#p" />
<use x="128" y="88" xlink:href="#p" />
<use x="136" y="88" xlink:href="#p" />
<use x="160" y="88" xlink:href="#p" />
<use x="168" y="88" xlink:href="#p" />
<use x="192" y="88" xlink:href="#p" />
<use x="216" y="88" xlink:href="#p" />
<use x="240" y="88" xlink:href="#p" />
<use x="256" y="88" xlink:href="#p" />
<use x="264" y="88" xlink:href="#p" />
<use x="272" y="88" xlink:href="#p" />
<use x="288" y="88" xlink:href="#p" />
<use x="304" y="88" xlink:href="#p" />
<use x="320" y="88" xlink:href="#p" />
<use x="336" y="88" xlink:href="#p" />
<use x="32" y="96" xlink:href="#p" />
<use x="56" y="96" xlink:href="#p" />
<use x="64" y="96" xlink:href="#p" />
<use x="72" y="96" xlink:href="#p" />
<use x="88" y="96" xlink:href="#p" />
<use x="96" y="96" xlink:href="#p" />
<use x="104" y="96" xlink:href="#p" />
<use x="112" y="96" xlink:href="#p" />
<use x="120" y="96" xlink:href="#p" />
<use x="136" y="96" xlink:href="#p" />
<use x="160" y="96" xlink:href="#p" />
<use x="176" y="96" xlink:href="#p" />
<use x="192" y="96" xlink:href="#p" />
<use x="200" y="96" xlink:href="#p" />
<use x="208" y="96" xlink:href="#p" />
<use x="224" y="96" xlink:href="#p" />
<use x="232" y="96" xlink:href="#p" />
<use x="248" y="96" xlink:href="#p" />
<use x="256" y="96" xlink:href="#p" />
<use x="272" y="96" xlink:href="#p" />
<use x="296" y="96" xlink:href="#p" />
<use x="328" y="96" xlink:href="#p" />
<use x="32" y="104" xlink:href="#p" />
<use x="40" y="104" xlink:href="#p" />
<use x="80" y="104" xlink:href="#p" />
<use x="104" y="104" xlink:href="#p" />
<use x="112" y="104" xlink:href="#p" />
<use x="136" y="104" xlink:href="#p" />
<use x="144" y="104" xlink:href="#p" />
<use x="160" y="104" xlink:href="#p" />
<use x="168" y="104" xlink:href="#p" />
<use x="192" y="104" xlink:href="#p" />
<use x="232" y="104" xlink:href="#p" />
<use x="240" y="104" xlink:href="#p" />
<use x="256" y="104" xlink:href="#p" />
<use x="264" y="104" xlink:href="#p" />
<use x="272" y="104" xlink:href="#p" />
<use x="304" y="104" xlink:href="#p" />
<use x="312" y="104" xlink:href="#p" />
<use x="328" y="104" xlink:href="#p" />
<use x="336" y="104" xlink:href="#p" />
<use x="16" y="112" xlink:href="#p" />
<use x="24" y="112" xlink:href="#p" />
<use x="56" y="112" xlink:href="#p" />
<use x="64" y="112" xlink:href="#p" />
<use x="72" y="112" xlink:href="#p" />
<use x="96" y="112" xlink:href="#p" />
<use x="104" y="112" xlink:href="#p" />
<use x="112" y="112" xlink:href="#p" />
<use x="128" y="112" xlink:href="#p" />
<use x="168" y="112" xlink:href="#p" />
<use x="176" y="112" xlink:href="#p" />
<use x="184" y="112" xlink:href="#p" />
<use x="192" y="112" xlink:href="#p" />
<use x="200" y="112" xlink:href="#p" />
<use x="208" y="112" xlink:href="#p" />
<use x="216" y="112" xlink:href="#p" />
<use x="224" y="112" xlink:href="#p" />
<use x="240" y="112" xlink:href="#p" />
<use x="248" y="112" xlink:href="#p" />
<use x="256" y="112" xlink:href="#p" />
<use x="264" y="112" xlink:href="#p" />
<use x="280" y="112" xlink:href="#p" />
<use x="312" y="112" xlink:href="#p" />
<use x="320" y="112" xlink:href="#p" />
<use x="328" y="112" xlink:href="#p" />
<use x="24" y="120" xlink:href="#p" />
<use x="32" y="120" xlink:href="#p" />
<use x="80" y="120" xlink:href="#p" />
<use x="88" y="120" xlink:href="#p" />
<use x="96" y="120" xlink:href="#p" />
<use x="104" y="120" xlink:href="#p" />
<use x="120" y="120" xlink:href="#p" />
<use x="144" y="120" xlink:href="#p" />
<use x="152" y="120" xlink:href="#p" />
<use x="160" y="120" xlink:href="#p" />
<use x="168" y="120" xlink:href="#p" />
<use x="184" y="120" xlink:href="#p" />
<use x="192" y="120" xlink:href="#p" />
<use x="216" y="120" xlink:href="#p" />
<use x="232" y="120" xlink:href="#p" />
<use x="248" y="120" xlink:href="#p" />
<use x="256" y="120" xlink:href="#p" />
<use x="264" y="120" xlink:href="#p" />
<use x="272" y="120" xlink:href="#p" />
<use x="288" y="120" xlink:href="#p" />
<use x="296" y="120" xlink:href="#p" />
<use x="304" y="120" xlink:href="#p" />
<use x="312" y="120" xlink:href="#p" />
<use x="320" y="120" xlink:href="#p" />
<use x="336" y="120" xlink:href="#p" />
<use x="40" y="128" xlink:href="#p" />
<use x="48" y="128" xlink:href="#p" />
<use x="64" y="128" xlink:href="#p" />
<use x="72" y="128" xlink:href="#p" />
<use x="80" y="128" xlink:href="#p" />
<use x="88" y="128" xlink:href="#p" />
<use x="96" y="128" xlink:href="#p" />
<use x="104" y="128" xlink:href="#p" />
<use x="120" y="128" xlink:href="#p" />
<use x="128" y="128" xlink:href="#p" />
<use x="136" y="128" xlink:href="#p" />
<use x="144" y="128" xlink:href="#p" />
<use x="152" y="128" xlink:href="#p" />
<use x="184" y="128" xlink:href="#p" />
<use x="192" y="128" xlink:href="#p" />
<use x="200" y="128" xlink:href="#p" />
<use x="208" y="128" xlink:href="#p" />
<use x="232" y="128" xlink:href="#p" />
<use x="240" y="128" xlink:href="#p" />
<use x="248" y="128" xlink:href="#p" />
<use x="272" y="128" xlink:href="#p" />
<use x="280" y="128" xlink:href="#p" />
<use x="32" y="136" xlink:href="#p" />
<use x="40" y="136" xlink:href="#p" />
<use x="48" y="136" xlink:href="#p" />
<use x="56" y="136" xlink:href="#p" />
<use x="72" y="136" xlink:href="#p" />
<use x="88" y="136" xlink:href="#p" />
<use x="96" y="136" xlink:href="#p" />
<use x="104" y="136" xlink:href="#p" />
<use x="136" y="136" xlink:href="#p" />
<use x="152" y="136" xlink:href="#p" />
<use x="168" y="136" xlink:href="#p" />
<use x="192" y="136" xlink:href="#p" />
<use x="200" y="136" xlink:href="#p" />
<use x="232" y="136" xlink:href="#p" />
<use x="256" y="136" xlink:href="#p" />
<use x="288" y="136" xlink:href="#p" />
<use x="304" y="136" xlink:href="#p" />
<use x="312" y="136" xlink:href="#p" />
<use x="16" y="144" xlink:href="#p" />
<use x="40" y="144" xlink:href="#p" />
<use x="64" y="144" xlink:href="#p" />
<use x="72" y="144" xlink:href="#p" />
<use x="88" y="144" xlink:href="#p" />
<use x="96" y="144" xlink:href="#p" />
<use x="104" y="144" xlink:href="#p" />
<use x="120" y="144" xlink:href="#p" />
<use x="152" y="144" xlink:href="#p" />
<use x="176" y="144" xlink:href="#p" />
<use x="200" y="144" xlink:href="#p" />
<use x="208" y="144" xlink:href="#p" />
<use x="216" y="144" xlink:href="#p" />
<use x="232" y="144" xlink:href="#p" />
<use x="240" y="144" xlink:href="#p" />
<use x="272" y="144" xlink:href="#p" />
<use x="280" y="144" xlink:href="#p" />
<use x="296" y="144" xlink:href="#p" />
<use x="320" y="144" xlink:href="#p" />
<use x="328" y="144" xlink:href="#p" />
<use x="336" y="144" xlink:href="#p" />
<use x="24" y="152" xlink:href="#p" />
<use x="88" y="152" xlink:href="#p" />
<use x="112" y="152" xlink:href="#p" />
<use x="120" y="152" xlink:href="#p" />
<use x="128" y="152" xlink:href="#p" />
<use x="136" y="152" xlink:href="#p" />
<use x="144" y="152" xlink:href="#p" />
<use x="152" y="152" xlink:href="#p" />
<use x="168" y="152" xlink:href="#p" />
<use x="184" y="152" xlink:href="#p" />
<use x="200" y="152" xlink:href="#p" />
<use x="224" y="152" xlink:href="#p" />
<use x="256" y="152" xlink:href="#p" />
<use x="288" y="152" xlink:href="#p" />
<use x="296" y="152" xlink:href="#p" />
<use x="304" y="152" xlink:href="#p" />
<use x="328" y="152" xlink:href="#p" />
<use x="336" y="152" xlink:href="#p" />
<use x="24" y="160" xlink:href="#p" />
<use x="40" y="160" xlink:href="#p" />
<use x="56" y="160" xlink:href="#p" />
<use x="64" y="160" xlink:href="#p" />
<use x="88" y="160" xlink:href="#p" />
<use x="96" y="160" xlink:href="#p" />
<use x="104" y="160" xlink:href="#p" />
<use x="168" y="160" xlink:href="#p" />
<use x="184" y="160" xlink:href="#p" />
<use x="208" y="160" xlink:href="#p" />
<use x="216" y="160" xlink:href="#p" />
<use x="224" y="160" xlink:href="#p" />
<use x="232" y="160" xlink:href="#p" />
<use x="240" y="160" xlink:href="#p" />
<use x="256" y="160" xlink:href="#p" />
<use x="280" y="160" xlink:href="#p" />
<use x="304" y="160" xlink:href="#p" />
<use x="312" y="160" xlink:href="#p" />
<use x="320" y="160" xlink:href="#p" />
<use x="24" y="168" xlink:href="#p" />
<use x="32" y="168" xlink:href="#p" />
<use x="40" y="168" xlink:href="#p" />
<use x="48" y="168" xlink:href="#p" />
<use x="72" y="168" xlink:href="#p" />
<use x="80" y="168" xlink:href="#p" />
<use x="96" y="168" xlink:href="#p" />
<use x="104" y="168" xlink:href="#p" />
<use x="128" y="168" xlink:href="#p" />
<use x="144" y="168" xlink:href="#p" />
<use x="160" y="168" xlink:href="#p" />
<use x="184" y="168" xlink:href="#p" />
<use x="192" y="168" xlink:href="#p" />
<use x="200" y="168" xlink:href="#p" />
<use x="224" y="168" xlink:href="#p" />
<use x="304" y="168" xlink:href="#p" />
<use x="312" y="168" xlink:href="#p" />
<use x="16" y="176" xlink:href="#p" />
<use x="32" y="176" xlink:href="#p" />
<use x="48" y="176" xlink:href="#p" />
<use x="56" y="176" xlink:href="#p" />
<use x="64" y="176" xlink:href="#p" />
<use x="80" y="176" xlink:href="#p" />
<use x="88" y="176" xlink:href="#p" />
<use x="96" y="176" xlink:href="#p" />
<use x="128" y="176" xlink:href="#p" />
<use x="144" y="176" xlink:href="#p" />
<use x="160" y="176" xlink:href="#p" />
<use x="168" y="176" xlink:href="#p" />
<use x="176" y="176" xlink:href="#p" />
<use x="184" y="176" xlink:href="#p" />
<use x="192" y="176" xlink:href="#p" />
<use x="208" y="176" xlink:href="#p" />
<use x="216" y="176" xlink:href="#p" />
<use x="232" y="176" xlink:href="#p" />
<use x="248" y="176" xlink:href="#p" />
<use x="256" y="176" xlink:href="#p" />
<use x="296" y="176" xlink:href="#p" />
<use x="320" y="176" xlink:href="#p" />
<use x="328" y="176" xlink:href="#p" />
<use x="16" y="184" xlink:href="#p" />
<use x="24" y="184" xlink:href="#p" />
<use x="32" y="184" xlink:href="#p" />
<use x="48" y="184" xlink:href="#p" />
<use x="72" y="184" xlink:href="#p" />
<use x="80" y="184" xlink:href="#p" />
<use x="88" y="184" xlink:href="#p" />
<use x="96" y="184" xlink:href="#p" />
<use x="104" y="184" xlink:href="#p" />
<use x="112" y="184" xlink:href="#p" />
<use x="120" y="184" xlink:href="#p" />
<use x="128" y="184" xlink:href="#p" />
<use x="136" y="184" xlink:href="#p" />
<use x="176" y="184" xlink:href="#p" />
<use x="200" y="184" xlink:href="#p" />
<use x="216" y="184" xlink:href="#p" />
<use x="224" y="184" xlink:href="#p" />
<use x="240" y="184" xlink:href="#p" />
<use x="248" y="184" xlink:href="#p" />
<use x="264" y="184" xlink:href="#p" />
<use x="272" y="184" xlink:href="#p" />
<use x="280" y="184" xlink:href="#p" />
<use x="288" y="184" xlink:href="#p" />
<use x="304" y="184" xlink:href="#p" />
<use x="320" y="184" xlink:href="#p" />
<use x="328" y="184" xlink:href="#p" />
<use x="336" y="184" xlink:href="#p" />
<use x="24" y="192" xlink:href="#p" />
<use x="32" y="192" xlink:href="#p" />
<use x="64" y="192" xlink:href="#p" />
<use x="96" y="192" xlink:href="#p" />
<use x="104" y="192" xlink:href="#p" />
<use x="112" y="192" xlink:href="#p" />
<use x="120" y="192" xlink:href="#p" />
<use x="128" y="192" xlink:href="#p" />
<use x="152" y="192" xlink:href="#p" />
<use x="160" y="192" xlink:href="#p" />
<use x="168" y="192" xlink:href="#p" />
<use x="176" y="192" xlink:href="#p" />
<use x="208" y="192" xlink:href="#p" />
<use x="216" y="192" xlink:href="#p" />
<use x="224" y="192" xlink:href="#p" />
<use x="232" y="192" xlink:href="#p" />
<use x="240" y="192" xlink:href="#p" />
<use x="248" y="192" xlink:href="#p" />
<use x="272" y="192" xlink:href="#p" />
<use x="280" y="192" xlink:href="#p" />
<use x="296" y="192" xlink:href="#p" />
<use x="304" y="192" xlink:href="#p" />
<use x="24" y="200" xlink:href="#p" />
<use x="40" y="200" xlink:href="#p" />
<use x="48" y="200" xlink:href="#p" />
<use x="56" y="200" xlink:href="#p" />
<use x="88" y="200" xlink:href="#p" />
<use x="96" y="200" xlink:href="#p" />
<use x="136" y="200" xlink:href="#p" />
<use x="168" y="200" xlink:href="#p" />
<use x="184" y="200" xlink:href="#p" />
<use x="192" y="200" xlink:href="#p" />
<use x="200" y="200" xlink:href="#p" />
<use x="208" y="200" xlink:href="#p" />
<use x="224" y="200" xlink:href="#p" />
<use x="240" y="200" xlink:href="#p" />
<use x="264" y="200" xlink:href="#p" />
<use x="288" y="200" xlink:href="#p" />
<use x="296" y="200" xlink:href="#p" />
<use x="304" y="200" xlink:href="#p" />
<use x="312" y="200" xlink:href="#p" />
<use x="328" y="200" xlink:href="#p" />
<use x="16" y="208" xlink:href="#p" />
<use x="24" y="208" xlink:href="#p" />
<use x="32" y="208" xlink:href="#p" />
<use x="48" y="208" xlink:href="#p" />
<use x="64" y="208" xlink:href="#p" />
<use x="72" y="208" xlink:href="#p" />
<use x="80" y="208" xlink:href="#p" />
<use x="96" y="208" xlink:href="#p" />
<use x="152" y="208" xlink:href="#p" />
<use x="168" y="208" xlink:href="#p" />
<use x="192" y="208" xlink:href="#p" />
<use x="208" y="208" xlink:href="#p" />
<use x="216" y="208" xlink:href="#p" />
<use x="224" y="208" xlink:href="#p" />
<use x="248" y="208" xlink:href="#p" />
<use x="296" y="208" xlink:href="#p" />
<use x="320" y="208" xlink:href="#p" />
<use x="336" y="208" xlink:href="#p" />
<use x="16" y="216" xlink:href="#p" />
<use x="32" y="216" xlink:href="#p" />
<use x="72" y="216" xlink:href="#p" />
<use x="80" y="216" xlink:href="#p" />
<use x="88" y="216" xlink:href="#p" />
<use x="104" y="216" xlink:href="#p" />
<use x="112" y="216" xlink:href="#p" />
<use x="128" y="216" xlink:href="#p" />
<use x="152" y="216" xlink:href="#p" />
<use x="168" y="216" xlink:href="#p" />
<use x="176" y="216" xlink:href="#p" />
<use x="184" y="216" xlink:href="#p" />
<use x="200" y="216" xlink:href="#p" />
<use x="208" y="216" xlink:href="#p" />
<use x="216" y="216" xlink:href="#p" />
<use x="224" y="216" xlink:href="#p" />
<use x="240" y="216" xlink:href="#p" />
<use x="248" y="216" xlink:href="#p" />
<use x="256" y="216" xlink:href="#p" />
<use x="264" y="216" xlink:href="#p" />
<use x="280" y="216" xlink:href="#p" />
<use x="288" y="216" xlink:href="#p" />
<use x="304" y="216" xlink:href="#p" />
<use x="312" y="216" xlink:href="#p" />
<use x="336" y="216" xlink:href="#p" />
<use x="16" y="224" xlink:href="#p" />
<use x="24" y="224" xlink:href="#p" />
<use x="64" y="224" xlink:href="#p" />
<use x="80" y="224" xlink:href="#p" />
<use x="88" y="224" xlink:href="#p" />
<use x="96" y="224" xlink:href="#p" />
<use x="104" y="224" xlink:href="#p" />
<use x="128" y="224" xlink:href="#p" />
<use x="168" y="224" xlink:href="#p" />
<use x="176" y="224" xlink:href="#p" />
<use x="208" y="224" xlink:href="#p" />
<use x="216" y="224" xlink:href="#p" />
<use x="224" y="224" xlink:href="#p" />
<use x="232" y="224" xlink:href="#p" />
<use x="240" y="224" xlink:href="#p" />
<use x="248" y="224" xlink:href="#p" />
<use x="272" y="224" xlink:href="#p" />
<use x="296" y="224" xlink:href="#p" />
<use x="304" y="224" xlink:href="#p" />
<use x="328" y="224" xlink:href="#p" />
<use x="16" y="232" xlink:href="#p" />
<use x="32" y="232" xlink:href="#p" />
<use x="48" y="232" xlink:href="#p" />
<use x="72" y="232" xlink:href="#p" />
<use x="104" y="232" xlink:href="#p" />
<use x="112" y="232" xlink:href="#p" />
<use x="120" y="232" xlink:href="#p" />
<use x="128" y="232" xlink:href="#p" />
<use x="144" y="232" xlink:href="#p" />
<use x="152" y="232" xlink:href="#p" />
<use x="168" y="232" xlink:href="#p" />
<use x="184" y="232" xlink:href="#p" />
<use x="192" y="232" xlink:href="#p" />
<use x="224" y="232" xlink:href="#p" />
<use x="232" y="232" xlink:href="#p" />
<use x="256" y="232" xlink:href="#p" />
<use x="264" y="232" xlink:href="#p" />
<use x="272" y="232" xlink:href="#p" />
<use x="280" y="232" xlink:href="#p" />
<use x="288" y="232" xlink:href="#p" />
<use x="296" y="232" xlink:href="#p" />
<use x="312" y="232" xlink:href="#p" />
<use x="328" y="232" xlink:href="#p" />
<use x="32" y="240" xlink:href="#p" />
<use x="64" y="240" xlink:href="#p" />
<use x="72" y="240" xlink:href="#p" />
<use x="88" y="240" xlink:href="#p" />
<use x="96" y="240" xlink:href="#p" />
<use x="104" y="240" xlink:href="#p" />
<use x="112" y="240" xlink:href="#p" />
<use x="120" y="240" xlink:href="#p" />
<use x="128" y="240" xlink:href="#p" />
<use x="136" y="240" xlink:href="#p" />
<use x="168" y="240" xlink:href="#p" />
<use x="192" y="240" xlink:href="#p" />
<use x="208" y="240" xlink:href="#p" />
<use x="216" y="240" xlink:href="#p" />
<use x="224" y="240" xlink:href="#p" />
<use x="232" y="240" xlink:href="#p" />
<use x="248" y="240" xlink:href="#p" />
<use x="256" y="240" xlink:href="#p" />
<use x="264" y="240" xlink:href="#p" />
<use x="296" y="240" xlink:href="#p" />
<use x="312" y="240" xlink:href="#p" />
<use x="320" y="240" xlink:href="#p" />
<use x="16" y="248" xlink:href="#p" />
<use x="24" y="248" xlink:href="#p" />
<use x="32" y="248" xlink:href="#p" />
<use x="48" y="248" xlink:href="#p" />
<use x="56" y="248" xlink:href="#p" />
<use x="72" y="248" xlink:href="#p" />
<use x="104" y="248" xlink:href="#p" />
<use x="120" y="248" xlink:href="#p" />
<use x="128" y="248" xlink:href="#p" />
<use x="136" y="248" xlink:href="#p" />
<use x="144" y="248" xlink:href="#p" />
<use x="152" y="248" xlink:href="#p" />
<use x="168" y="248" xlink:href="#p" />
<use x="184" y="248" xlink:href="#p" />
<use x="192" y="248" xlink:href="#p" />
<use x="208" y="248" xlink:href="#p" />
<use x="240" y="248" xlink:href="#p" />
<use x="264" y="248" xlink:href="#p" />
<use x="272" y="248" xlink:href="#p" />
<use x="280" y="248" xlink:href="#p" />
<use x="288" y="248" xlink:href="#p" />
<use x="296" y="248" xlink:href="#p" />
<use x="304" y="248" xlink:href="#p" />
<use x="312" y="248" xlink:href="#p" />
<use x="320" y="248" xlink:href="#p" />
<use x="328" y="248" xlink:href="#p" />
<use x="336" y="248" xlink:href="#p" />
<use x="16" y="256" xlink:href="#p" />
<use x="32" y="256" xlink:href="#p" />
<use x="64" y="256" xlink:href="#p" />
<use x="88" y="256" xlink:href="#p" />
<use x="112" y="256" xlink:href="#p" />
<use x="120" y="256" xlink:href="#p" />
<use x="128" y="256" xlink:href="#p" />
<use x="136" y="256" xlink:href="#p" />
<use x="152" y="256" xlink:href="#p" />
<use x="168" y="256" xlink:href="#p" />
<use x="176" y="256" xlink:href="#p" />
<use x="184" y="256" xlink:href="#p" />
<use x="192" y="256" xlink:href="#p" />
<use x="208" y="256" xlink:href="#p" />
<use x="216" y="256" xlink:href="#p" />
<use x="224" y="256" xlink:href="#p" />
<use x="232" y="256" xlink:href="#p" />
<use x="280" y="256" xlink:href="#p" />
<use x="288" y="256" xlink:href="#p" />
<use x="296" y="256" xlink:href="#p" />
<use x="312" y="256" xlink:href="#p" />
<use x="320" y="256" xlink:href="#p" />
<use x="16" y="264" xlink:href="#p" />
<use x="40" y="264" xlink:href="#p" />
<use x="80" y="264" xlink:href="#p" />
<use x="96" y="264" xlink:href="#p" />
<use x="112" y="264" xlink:href="#p" />
<use x="120" y="264" xlink:href="#p" />
<use x="128" y="264" xlink:href="#p" />
<use x="152" y="264" xlink:href="#p" />
<use x="160" y="264" xlink:href="#p" />
<use x="168" y="264" xlink:href="#p" />
<use x="176" y="264" xlink:href="#p" />
<use x="184" y="264" xlink:href="#p" />
<use x="192" y="264" xlink:href="#p" />
<use x="200" y="264" xlink:href="#p" />
<use x="208" y="264" xlink:href="#p" />
<use x="232" y="264" xlink:href="#p" />
<use x="256" y="264" xlink:href="#p" />
<use x="264" y="264" xlink:href="#p" />
<use x="272" y="264" xlink:href="#p" />
<use x="280" y="264" xlink:href="#p" />
<use x="288" y="264" xlink:href="#p" />
<use x="304" y="264" xlink:href="#p" />
<use x="312" y="264" xlink:href="#p" />
<use x="16" y="272" xlink:href="#p" />
<use x="40" y="272" xlink:href="#p" />
<use x="48" y="272" xlink:href="#p" />
<use x="56" y="272" xlink:href="#p" />
<use x="64" y="272" xlink:href="#p" />
<use x="96" y="272" xlink:href="#p" />
<use x="104" y="272" xlink:href="#p" />
<use x="136" y="272" xlink:href="#p" />
<use x="152" y="272" xlink:href="#p" />
<use x="192" y="272" xlink:href="#p" />
<use x="216" y="272" xlink:href="#p" />
<use x="224" y="272" xlink:href="#p" />
<use x="232" y="272" xlink:href="#p" />
<use x="256" y="272" xlink:href="#p" />
<use x="272" y="272" xlink:href="#p" />
<use x="280" y="272" xlink:href="#p" />
<use x="288" y="272" xlink:href="#p" />
<use x="296" y="272" xlink:href="#p" />
<use x="304" y="272" xlink:href="#p" />
<use x="320" y="272" xlink:href="#p" />
<use x="328" y="272" xlink:href="#p" />
<use x="80" y="280" xlink:href="#p" />
<use x="152" y="280" xlink:href="#p" />
<use x="160" y="280" xlink:href="#p" />
<use x="184" y="280" xlink:href="#p" />
<use x="192" y="280" xlink:href="#p" />
<use x="200" y="280" xlink:href="#p" />
<use x="208" y="280" xlink:href="#p" />
<use x="240" y="280" xlink:href="#p" />
<use x="264" y="280" xlink:href="#p" />
<use x="272" y="280" xlink:href="#p" />
<use x="304" y="280" xlink:href="#p" />
<use x="312" y="280" xlink:href="#p" />
<use x="328" y="280" xlink:href="#p" />
<use x="336" y="280" xlink:href="#p" />
<use x="16" y="288" xlink:href="#p" />
<use x="24" y="288" xlink:href="#p" />
<use x="32" y="288" xlink:href="#p" />
<use x="40" y="288" xlink:href="#p" />
<use x="48" y="288" xlink:href="#p" />
<use x="56" y="288" xlink:href="#p" />
<use x="64" y="288" xlink:href="#p" />
<use x="80" y="288" xlink:href="#p" />
<use x="96" y="288" xlink:href="#p" />
<use x="104" y="288" xlink:href="#p" />
<use x="128" y="288" xlink:href="#p" />
<use x="144" y="288" xlink:href="#p" />
<use x="168" y="288" xlink:href="#p" />
<use x="176" y="288" xlink:href="#p" />
<use x="184" y="288" xlink:href="#p" />
<use x="232" y="288" xlink:href="#p" />
<use x="248" y="288" xlink:href="#p" />
<use x="272" y="288" xlink:href="#p" />
<use x="288" y="288" xlink:href="#p" />
<use x="304" y="288" xlink:href="#p" />
<use x="312" y="288" xlink:href="#p" />
<use x="16" y="296" xlink:href="#p" />
<use x="64" y="296" xlink:href="#p" />
<use x="80" y="296" xlink:href="#p" />
<use x="88" y="296" xlink:href="#p" />
<use x="104" y="296" xlink:href="#p" />
<use x="112" y="296" xlink:href="#p" />
<use x="120" y="296" xlink:href="#p" />
<use x="136" y="296" xlink:href="#p" />
<use x="168" y="296" xlink:href="#p" />
<use x="176" y="296" xlink:href="#p" />
<use x="184" y="296" xlink:href="#p" />
<use x="192" y="296" xlink:href="#p" />
<use x="200" y="296" xlink:href="#p" />
<use x="208" y="296" xlink:href="#p" />
<use x="224" y="296" xlink:href="#p" />
<use x="232" y="296" xlink:href="#p" />
<use x="240" y="296" xlink:href="#p" />
<use x="256" y="296" xlink:href="#p" />
<use x="272" y="296" xlink:href="#p" />
<use x="304" y="296" xlink:href="#p" />
<use x="336" y="296" xlink:href="#p" />
<use x="16" y="304" xlink:href="#p" />
<use x="32" y="304" xlink:href="#p" />
<use x="40" y="304" xlink:href="#p" />
<use x="48" y="304" xlink:href="#p" />
<use x="64" y="304" xlink:href="#p" />
<use x="80" y="304" xlink:href="#p" />
<use x="96" y="304" xlink:href="#p" />
<use x="112" y="304" xlink:href="#p" />
<use x="128" y="304" xlink:href="#p" />
<use x="136" y="304" xlink:href="#p" />
<use x="144" y="304" xlink:href="#p" />
<use x="168" y="304" xlink:href="#p" />
<use x="176" y="304" xlink:href="#p" />
<use x="184" y="304" xlink:href="#p" />
<use x="192" y="304" xlink:href="#p" />
<use x="216" y="304" xlink:href="#p" />
<use x="224" y="304" xlink:href="#p" />
<use x="232" y="304" xlink:href="#p" />
<use x="248" y="304" xlink:href="#p" />
<use x="256" y="304" xlink:href="#p" />
<use x="272" y="304" xlink:href="#p" />
<use x="280" y="304" xlink:href="#p" />
<use x="288" y="304" xlink:href="#p" />
<use x="296" y="304" xlink:href="#p" />
<use x="304" y="304" xlink:href="#p" />
<use x="320" y="304" xlink:href="#p" />
<use x="336" y="304" xlink:href="#p" />
<use x="16" y="312" xlink:href="#p" />
<use x="32" y="312" xlink:href="#p" />
<use x="40" y="312" xlink:href="#p" />
<use x="48" y="312" xlink:href="#p" />
<use x="64" y="312" xlink:href="#p" />
<use x="80" y="312" xlink:href="#p" />
<use x="88" y="312" xlink:href="#p" />
<use x="96" y="312" xlink:href="#p" />
<use x="104" y="312" xlink:href="#p" />
<use x="128" y="312" xlink:href="#p" />
<use x="136" y="312" xlink:href="#p" />
<use x="144" y="312" xlink:href="#p" />
<use x="192" y="312" xlink:href="#p" />
<use x="200" y="312" xlink:href="#p" />
<use x="280" y="312" xlink:href="#p" />
<use x="296" y="312" xlink:href="#p" />
<use x="328" y="312" xlink:href="#p" />
<use x="336" y="312" xlink:href="#p" />
<use x="16" y="320" xlink:href="#p" />
<use x="32" y="320" xlink:href="#p" />
<use x="40" y="320" xlink:href="#p" />
<use x="48" y="320" xlink:href="#p" />
<use x="64" y="320" xlink:href="#p" />
<use x="80" y="320" xlink:href="#p" />
<use x="96" y="320" xlink:href="#p" />
<use x="104" y="320" xlink:href="#p" />
<use x="160" y="320" xlink:href="#p" />
<use x="168" y="320" xlink:href="#p" />
<use x="176" y="320" xlink:href="#p" />
<use x="192" y="320" xlink:href="#p" />
<use x="216" y="320" xlink:href="#p" />
<use x="232" y="320" xlink:href="#p" />
<use x="248" y="320" xlink:href="#p" />
<use x="256" y="320" xlink:href="#p" />
<use x="264" y="320" xlink:href="#p" />
<use x="280" y="320" xlink:href="#p" />
<use x="288" y="320" xlink:href="#p" />
<use x="296" y="320" xlink:href="#p" />
<use x="304" y="320" xlink:href="#p" />
<use x="312" y="320" xlink:href="#p" />
<use x="320" y="320" xlink:href="#p" />
<use x="328" y="320" xlink:href="#p" />
<use x="16" y="328" xlink:href="#p" />
<use x="64" y="328" xlink:href="#p" />
<use x="80" y="328" xlink:href="#p" />
<use x="88" y="328" xlink:href="#p" />
<use x="104" y="328" xlink:href="#p" />
<use x="136" y="328" xlink:href="#p" />
<use x="144" y="328" xlink:href="#p" />
<use x="160" y="328" xlink:href="#p" />
<use x="168" y="328" xlink:href="#p" />
<use x="192" y="328" xlink:href="#p" />
<use x="200" y="328" xlink:href="#p" />
<use x="208" y="328" xlink:href="#p" />
<use x="224" y="328" xlink:href="#p" />
<use x="232" y="328" xlink:href="#p" />
<use x="264" y="328" xlink:href="#p" />
<use x="272" y="328" xlink:href="#p" />
<use x="280" y="328" xlink:href="#p" />
<use x="288" y="328" xlink:href="#p" />
<use x="304" y="328" xlink:href="#p" />
<use x="328" y="328" xlink:href="#p" />
<use x="16" y="336" xlink:href="#p" />
<use x="24" y="336" xlink:href="#p" />
<use x="32" y="336" xlink:href="#p" />
<use x="40" y="336" xlink:href="#p" />
<use x="48" y="336" xlink:href="#p" />
<use x="56" y="336" xlink:href="#p" />
<use x="64" y="336" xlink:href="#p" />
<use x="104" y="336" xlink:href="#p" />
<use x="112" y="336" xlink:href="#p" />
<use x="128" y="336" xlink:href="#p" />
<use x="160" y="336" xlink:href="#p" />
<use x="184" y="336" xlink:href="#p" />
<use x="192" y="336" xlink:href="#p" />
<use x="216" y="336" xlink:href="#p" />
<use x="224" y="336" xlink:href="#p" />
<use x="232" y="336" xlink:href="#p" />
<use x="248" y="336" xlink:href="#p" />
<use x="264" y="336" xlink:href="#p" />
<use x="296" y="336" xlink:href="#p" />
<use x="304" y="336" xlink:href="#p" />
<use x="312" y="336" xlink:href="#p" />
<use x="320" y="336" xlink:href="#p" />
</g>
</svg>